<mxfile host="app.diagrams.net" modified="2021-08-04T02:48:41.033Z" agent="5.0 (Macintosh; Intel Mac OS X 10_15_7) AppleWebKit/537.36 (KHTML, like Gecko) Chrome/92.0.4515.107 Safari/537.36" etag="Pce3F3kvQbKA9E662iMl" version="14.7.10" type="github" pages="2">
  <diagram id="CkMgRD7kxJJln2M9EaPj" name="cid-generation-rule">
    <mxGraphModel dx="1426" dy="685" grid="1" gridSize="10" guides="1" tooltips="1" connect="1" arrows="1" fold="1" page="1" pageScale="1" pageWidth="827" pageHeight="1169" math="0" shadow="0">
      <root>
        <mxCell id="0" />
        <mxCell id="1" parent="0" />
        <mxCell id="hDJmK20e5FMihnW_Sdns-1" value="&lt;span style=&quot;color: rgb(51, 51, 51); font-family: &amp;quot;open sans&amp;quot;, &amp;quot;clear sans&amp;quot;, &amp;quot;helvetica neue&amp;quot;, helvetica, arial, sans-serif; font-size: 25px; background-color: rgb(255, 255, 255);&quot;&gt;1596438652969-01-2125217-0000000001&lt;/span&gt;" style="text;html=1;align=center;verticalAlign=middle;resizable=0;points=[];autosize=1;fontSize=25;" parent="1" vertex="1">
          <mxGeometry x="180" y="195" width="490" height="40" as="geometry" />
        </mxCell>
        <mxCell id="hDJmK20e5FMihnW_Sdns-4" value="" style="strokeWidth=2;html=1;shape=mxgraph.flowchart.annotation_2;align=left;labelPosition=right;pointerEvents=1;fontSize=25;rotation=90;" parent="1" vertex="1">
          <mxGeometry x="270" y="102.5" width="20" height="170" as="geometry" />
        </mxCell>
        <mxCell id="hDJmK20e5FMihnW_Sdns-6" value="" style="strokeWidth=2;html=1;shape=mxgraph.flowchart.annotation_2;align=left;labelPosition=right;pointerEvents=1;fontSize=25;rotation=90;" parent="1" vertex="1">
          <mxGeometry x="460" y="140" width="20" height="95" as="geometry" />
        </mxCell>
        <mxCell id="hDJmK20e5FMihnW_Sdns-7" value="" style="strokeWidth=2;html=1;shape=mxgraph.flowchart.annotation_2;align=left;labelPosition=right;pointerEvents=1;fontSize=25;rotation=-90;" parent="1" vertex="1">
          <mxGeometry x="380" y="230" width="20" height="20" as="geometry" />
        </mxCell>
        <mxCell id="hDJmK20e5FMihnW_Sdns-8" value="" style="strokeWidth=2;html=1;shape=mxgraph.flowchart.annotation_2;align=left;labelPosition=right;pointerEvents=1;fontSize=25;rotation=-90;" parent="1" vertex="1">
          <mxGeometry x="580" y="175" width="20" height="130" as="geometry" />
        </mxCell>
        <mxCell id="hDJmK20e5FMihnW_Sdns-9" value="13位-对时时间戳" style="text;html=1;align=center;verticalAlign=middle;resizable=0;points=[];autosize=1;fontSize=15;" parent="1" vertex="1">
          <mxGeometry x="215" y="150" width="130" height="20" as="geometry" />
        </mxCell>
        <mxCell id="hDJmK20e5FMihnW_Sdns-11" value="7位-接收端uid" style="text;html=1;align=center;verticalAlign=middle;resizable=0;points=[];autosize=1;fontSize=15;" parent="1" vertex="1">
          <mxGeometry x="415" y="150" width="110" height="20" as="geometry" />
        </mxCell>
        <mxCell id="hDJmK20e5FMihnW_Sdns-12" value="10位-消息计数位" style="text;html=1;align=center;verticalAlign=middle;resizable=0;points=[];autosize=1;fontSize=15;" parent="1" vertex="1">
          <mxGeometry x="525" y="252.5" width="130" height="20" as="geometry" />
        </mxCell>
        <mxCell id="hDJmK20e5FMihnW_Sdns-13" value="2位-端标识位" style="text;html=1;align=center;verticalAlign=middle;resizable=0;points=[];autosize=1;fontSize=15;" parent="1" vertex="1">
          <mxGeometry x="340" y="252.5" width="100" height="20" as="geometry" />
        </mxCell>
      </root>
    </mxGraphModel>
  </diagram>
  <diagram id="G_jvvO8c697_SLFTYzB8" name="第 2 页">
    <mxGraphModel dx="1426" dy="685" grid="1" gridSize="10" guides="1" tooltips="1" connect="1" arrows="1" fold="1" page="1" pageScale="1" pageWidth="827" pageHeight="1169" math="0" shadow="0">
      <root>
        <mxCell id="IFcNzwK4-mAMcbaqJtwe-0" />
        <mxCell id="IFcNzwK4-mAMcbaqJtwe-1" parent="IFcNzwK4-mAMcbaqJtwe-0" />
        <mxCell id="IFcNzwK4-mAMcbaqJtwe-19" value="" style="group" parent="IFcNzwK4-mAMcbaqJtwe-1" vertex="1" connectable="0">
          <mxGeometry x="190" y="110" width="560" height="540" as="geometry" />
        </mxCell>
        <mxCell id="IFcNzwK4-mAMcbaqJtwe-13" value="" style="endArrow=classic;html=1;dashed=1;" parent="IFcNzwK4-mAMcbaqJtwe-19" edge="1">
          <mxGeometry width="50" height="50" relative="1" as="geometry">
            <mxPoint x="9" y="10" as="sourcePoint" />
            <mxPoint x="9" y="510" as="targetPoint" />
          </mxGeometry>
        </mxCell>
        <mxCell id="IFcNzwK4-mAMcbaqJtwe-14" value="" style="endArrow=classic;html=1;dashed=1;" parent="IFcNzwK4-mAMcbaqJtwe-19" edge="1">
          <mxGeometry width="50" height="50" relative="1" as="geometry">
            <mxPoint x="10" y="10" as="sourcePoint" />
            <mxPoint x="530" y="10" as="targetPoint" />
          </mxGeometry>
        </mxCell>
        <mxCell id="IFcNzwK4-mAMcbaqJtwe-17" value="X" style="text;html=1;align=center;verticalAlign=middle;resizable=0;points=[];autosize=1;strokeColor=none;" parent="IFcNzwK4-mAMcbaqJtwe-19" vertex="1">
          <mxGeometry x="540" width="20" height="20" as="geometry" />
        </mxCell>
        <mxCell id="IFcNzwK4-mAMcbaqJtwe-18" value="Y" style="text;html=1;align=center;verticalAlign=middle;resizable=0;points=[];autosize=1;strokeColor=none;" parent="IFcNzwK4-mAMcbaqJtwe-19" vertex="1">
          <mxGeometry y="520" width="20" height="20" as="geometry" />
        </mxCell>
        <mxCell id="IFcNzwK4-mAMcbaqJtwe-16" value="" style="group" parent="IFcNzwK4-mAMcbaqJtwe-19" vertex="1" connectable="0">
          <mxGeometry x="10" y="10" width="400" height="360" as="geometry" />
        </mxCell>
        <mxCell id="IFcNzwK4-mAMcbaqJtwe-5" value="A" style="rounded=0;whiteSpace=wrap;html=1;" parent="IFcNzwK4-mAMcbaqJtwe-16" vertex="1">
          <mxGeometry x="80" width="80" height="120" as="geometry" />
        </mxCell>
        <mxCell id="IFcNzwK4-mAMcbaqJtwe-6" value="B" style="rounded=0;whiteSpace=wrap;html=1;" parent="IFcNzwK4-mAMcbaqJtwe-16" vertex="1">
          <mxGeometry x="160" width="120" height="120" as="geometry" />
        </mxCell>
        <mxCell id="IFcNzwK4-mAMcbaqJtwe-7" value="C" style="rounded=0;whiteSpace=wrap;html=1;" parent="IFcNzwK4-mAMcbaqJtwe-16" vertex="1">
          <mxGeometry x="280" width="120" height="320" as="geometry" />
        </mxCell>
        <mxCell id="IFcNzwK4-mAMcbaqJtwe-8" value="D" style="rounded=0;whiteSpace=wrap;html=1;" parent="IFcNzwK4-mAMcbaqJtwe-16" vertex="1">
          <mxGeometry x="120" y="200" width="160" height="160" as="geometry" />
        </mxCell>
        <mxCell id="IFcNzwK4-mAMcbaqJtwe-9" value="E" style="rounded=0;whiteSpace=wrap;html=1;" parent="IFcNzwK4-mAMcbaqJtwe-16" vertex="1">
          <mxGeometry y="200" width="120" height="120" as="geometry" />
        </mxCell>
      </root>
    </mxGraphModel>
  </diagram>
</mxfile>
